<mxfile host="app.diagrams.net" modified="2023-06-19T10:52:37.922Z" agent="Mozilla/5.0 (X11; Linux x86_64) AppleWebKit/537.36 (KHTML, like Gecko) Chrome/114.0.0.0 Safari/537.36" etag="sz8XFVxgFPkuYXAS2ouX" version="21.5.0" type="google">
  <diagram name="Page-1" id="e56a1550-8fbb-45ad-956c-1786394a9013">
    <mxGraphModel grid="1" page="1" gridSize="10" guides="1" tooltips="1" connect="1" arrows="1" fold="1" pageScale="1" pageWidth="1100" pageHeight="850" background="none" math="0" shadow="0">
      <root>
        <mxCell id="0" />
        <mxCell id="1" parent="0" />
        <mxCell id="Vs4qHyU0oknlkXzEUtUu-223" value="Employee" style="swimlane;html=1;fontStyle=0;childLayout=stackLayout;horizontal=1;startSize=26;fillColor=#e0e0e0;horizontalStack=0;resizeParent=1;resizeLast=0;collapsible=1;marginBottom=0;swimlaneFillColor=#ffffff;align=center;rounded=0;shadow=0;comic=0;labelBackgroundColor=none;strokeWidth=1;fontFamily=Verdana;fontSize=14" vertex="1" parent="1">
          <mxGeometry x="-2220" y="-480" width="160" height="52" as="geometry" />
        </mxCell>
        <mxCell id="Vs4qHyU0oknlkXzEUtUu-224" value="salary" style="shape=partialRectangle;top=0;left=0;right=0;bottom=0;html=1;align=left;verticalAlign=top;fillColor=none;spacingLeft=60;spacingRight=4;whiteSpace=wrap;overflow=hidden;rotatable=0;points=[[0,0.5],[1,0.5]];portConstraint=eastwest;dropTarget=0;" vertex="1" parent="Vs4qHyU0oknlkXzEUtUu-223">
          <mxGeometry y="26" width="160" height="26" as="geometry" />
        </mxCell>
        <mxCell id="Vs4qHyU0oknlkXzEUtUu-225" value="double" style="shape=partialRectangle;top=0;left=0;bottom=0;html=1;fillColor=none;align=left;verticalAlign=top;spacingLeft=4;spacingRight=4;whiteSpace=wrap;overflow=hidden;rotatable=0;points=[];portConstraint=eastwest;part=1;" connectable="0" vertex="1" parent="Vs4qHyU0oknlkXzEUtUu-224">
          <mxGeometry width="56" height="26" as="geometry" />
        </mxCell>
        <mxCell id="Vs4qHyU0oknlkXzEUtUu-226" value="Chef" style="swimlane;html=1;fontStyle=0;childLayout=stackLayout;horizontal=1;startSize=26;fillColor=#e0e0e0;horizontalStack=0;resizeParent=1;resizeLast=0;collapsible=1;marginBottom=0;swimlaneFillColor=#ffffff;align=center;rounded=0;shadow=0;comic=0;labelBackgroundColor=none;strokeWidth=1;fontFamily=Verdana;fontSize=14;swimlaneLine=1;" vertex="1" parent="1">
          <mxGeometry x="-1970" y="-480" width="160" height="80" as="geometry" />
        </mxCell>
        <mxCell id="Vs4qHyU0oknlkXzEUtUu-227" value="Storage" style="shape=partialRectangle;top=0;left=0;right=0;bottom=0;html=1;align=left;verticalAlign=top;fillColor=none;spacingLeft=34;spacingRight=4;whiteSpace=wrap;overflow=hidden;rotatable=0;points=[[0,0.5],[1,0.5]];portConstraint=eastwest;dropTarget=0;" vertex="1" parent="Vs4qHyU0oknlkXzEUtUu-226">
          <mxGeometry y="26" width="160" height="26" as="geometry" />
        </mxCell>
        <mxCell id="Vs4qHyU0oknlkXzEUtUu-228" value="(c)" style="shape=partialRectangle;top=0;left=0;bottom=0;html=1;fillColor=none;align=left;verticalAlign=top;spacingLeft=4;spacingRight=4;whiteSpace=wrap;overflow=hidden;rotatable=0;points=[];portConstraint=eastwest;part=1;" connectable="0" vertex="1" parent="Vs4qHyU0oknlkXzEUtUu-227">
          <mxGeometry width="30" height="26" as="geometry" />
        </mxCell>
        <mxCell id="Vs4qHyU0oknlkXzEUtUu-229" value="prepare order" style="shape=partialRectangle;top=0;left=0;right=0;bottom=0;html=1;align=left;verticalAlign=top;fillColor=none;spacingLeft=34;spacingRight=4;whiteSpace=wrap;overflow=hidden;rotatable=0;points=[[0,0.5],[1,0.5]];portConstraint=eastwest;dropTarget=0;" vertex="1" parent="Vs4qHyU0oknlkXzEUtUu-226">
          <mxGeometry y="52" width="160" height="26" as="geometry" />
        </mxCell>
        <mxCell id="Vs4qHyU0oknlkXzEUtUu-230" value="(V)" style="shape=partialRectangle;top=0;left=0;bottom=0;html=1;fillColor=none;align=left;verticalAlign=top;spacingLeft=4;spacingRight=4;whiteSpace=wrap;overflow=hidden;rotatable=0;points=[];portConstraint=eastwest;part=1;" connectable="0" vertex="1" parent="Vs4qHyU0oknlkXzEUtUu-229">
          <mxGeometry width="30" height="26" as="geometry" />
        </mxCell>
        <mxCell id="Vs4qHyU0oknlkXzEUtUu-231" value="" style="shape=partialRectangle;top=0;left=0;right=0;bottom=0;html=1;align=left;verticalAlign=top;fillColor=none;spacingLeft=34;spacingRight=4;whiteSpace=wrap;overflow=hidden;rotatable=0;points=[[0,0.5],[1,0.5]];portConstraint=eastwest;dropTarget=0;" vertex="1" parent="Vs4qHyU0oknlkXzEUtUu-226">
          <mxGeometry y="78" width="160" height="2" as="geometry" />
        </mxCell>
        <mxCell id="Vs4qHyU0oknlkXzEUtUu-232" value="" style="shape=partialRectangle;top=0;left=0;bottom=0;html=1;fillColor=none;align=left;verticalAlign=top;spacingLeft=4;spacingRight=4;whiteSpace=wrap;overflow=hidden;rotatable=0;points=[];portConstraint=eastwest;part=1;" connectable="0" vertex="1" parent="Vs4qHyU0oknlkXzEUtUu-231">
          <mxGeometry width="30" height="2" as="geometry" />
        </mxCell>
        <mxCell id="Vs4qHyU0oknlkXzEUtUu-233" value="" style="endArrow=none;html=1;rounded=0;entryX=1.009;entryY=-0.125;entryDx=0;entryDy=0;entryPerimeter=0;" edge="1" parent="Vs4qHyU0oknlkXzEUtUu-226" target="Vs4qHyU0oknlkXzEUtUu-229">
          <mxGeometry width="50" height="50" relative="1" as="geometry">
            <mxPoint y="50" as="sourcePoint" />
            <mxPoint x="-20" y="160" as="targetPoint" />
          </mxGeometry>
        </mxCell>
        <mxCell id="Vs4qHyU0oknlkXzEUtUu-234" value="Storage" style="swimlane;html=1;fontStyle=0;childLayout=stackLayout;horizontal=1;startSize=26;fillColor=#e0e0e0;horizontalStack=0;resizeParent=1;resizeLast=0;collapsible=1;marginBottom=0;swimlaneFillColor=#ffffff;align=center;rounded=0;shadow=0;comic=0;labelBackgroundColor=none;strokeWidth=1;fontFamily=Verdana;fontSize=14" vertex="1" parent="1">
          <mxGeometry x="-2220" y="-400" width="160" height="114" as="geometry" />
        </mxCell>
        <mxCell id="Vs4qHyU0oknlkXzEUtUu-235" value="&lt;span style=&quot;font-weight: normal;&quot;&gt;&lt;span style=&quot;white-space: pre;&quot;&gt;&#x9;&lt;/span&gt;Item Quantities&lt;/span&gt;" style="shape=partialRectangle;top=0;left=0;right=0;bottom=1;html=1;align=left;verticalAlign=middle;fillColor=none;spacingLeft=34;spacingRight=4;whiteSpace=wrap;overflow=hidden;rotatable=0;points=[[0,0.5],[1,0.5]];portConstraint=eastwest;dropTarget=0;fontStyle=5;" vertex="1" parent="Vs4qHyU0oknlkXzEUtUu-234">
          <mxGeometry y="26" width="160" height="44" as="geometry" />
        </mxCell>
        <mxCell id="Vs4qHyU0oknlkXzEUtUu-236" value="HSET" style="shape=partialRectangle;top=0;left=0;bottom=0;html=1;fillColor=none;align=left;verticalAlign=middle;spacingLeft=4;spacingRight=4;whiteSpace=wrap;overflow=hidden;rotatable=0;points=[];portConstraint=eastwest;part=1;" connectable="0" vertex="1" parent="Vs4qHyU0oknlkXzEUtUu-235">
          <mxGeometry width="40" height="44" as="geometry" />
        </mxCell>
        <mxCell id="Vs4qHyU0oknlkXzEUtUu-237" value="&lt;span style=&quot;font-weight: normal;&quot;&gt;&lt;span style=&quot;white-space: pre;&quot;&gt;&#x9;&lt;/span&gt;Use ingredients&lt;/span&gt;" style="shape=partialRectangle;top=0;left=0;right=0;bottom=1;html=1;align=left;verticalAlign=middle;fillColor=none;spacingLeft=34;spacingRight=4;whiteSpace=wrap;overflow=hidden;rotatable=0;points=[[0,0.5],[1,0.5]];portConstraint=eastwest;dropTarget=0;fontStyle=5;" vertex="1" parent="Vs4qHyU0oknlkXzEUtUu-234">
          <mxGeometry y="70" width="160" height="44" as="geometry" />
        </mxCell>
        <mxCell id="Vs4qHyU0oknlkXzEUtUu-238" value="(V)" style="shape=partialRectangle;top=0;left=0;bottom=0;html=1;fillColor=none;align=left;verticalAlign=middle;spacingLeft=4;spacingRight=4;whiteSpace=wrap;overflow=hidden;rotatable=0;points=[];portConstraint=eastwest;part=1;" connectable="0" vertex="1" parent="Vs4qHyU0oknlkXzEUtUu-237">
          <mxGeometry width="40" height="44" as="geometry" />
        </mxCell>
        <mxCell id="Vs4qHyU0oknlkXzEUtUu-239" value="User type" style="swimlane;html=1;fontStyle=0;childLayout=stackLayout;horizontal=1;startSize=26;fillColor=#e0e0e0;horizontalStack=0;resizeParent=1;resizeLast=0;collapsible=1;marginBottom=0;swimlaneFillColor=#ffffff;align=center;rounded=0;shadow=0;comic=0;labelBackgroundColor=none;strokeWidth=1;fontFamily=Verdana;fontSize=14" vertex="1" parent="1">
          <mxGeometry x="-2470" y="-480" width="160" height="104" as="geometry" />
        </mxCell>
        <mxCell id="Vs4qHyU0oknlkXzEUtUu-240" value="name" style="shape=partialRectangle;top=0;left=0;right=0;bottom=0;html=1;align=left;verticalAlign=top;fillColor=none;spacingLeft=34;spacingRight=4;whiteSpace=wrap;overflow=hidden;rotatable=0;points=[[0,0.5],[1,0.5]];portConstraint=eastwest;dropTarget=0;" vertex="1" parent="Vs4qHyU0oknlkXzEUtUu-239">
          <mxGeometry y="26" width="160" height="26" as="geometry" />
        </mxCell>
        <mxCell id="Vs4qHyU0oknlkXzEUtUu-241" value="Str" style="shape=partialRectangle;top=0;left=0;bottom=0;html=1;fillColor=none;align=left;verticalAlign=top;spacingLeft=4;spacingRight=4;whiteSpace=wrap;overflow=hidden;rotatable=0;points=[];portConstraint=eastwest;part=1;" connectable="0" vertex="1" parent="Vs4qHyU0oknlkXzEUtUu-240">
          <mxGeometry width="30" height="26" as="geometry" />
        </mxCell>
        <mxCell id="Vs4qHyU0oknlkXzEUtUu-242" value="description" style="shape=partialRectangle;top=0;left=0;right=0;bottom=0;html=1;align=left;verticalAlign=top;fillColor=none;spacingLeft=34;spacingRight=4;whiteSpace=wrap;overflow=hidden;rotatable=0;points=[[0,0.5],[1,0.5]];portConstraint=eastwest;dropTarget=0;" vertex="1" parent="Vs4qHyU0oknlkXzEUtUu-239">
          <mxGeometry y="52" width="160" height="24" as="geometry" />
        </mxCell>
        <mxCell id="Vs4qHyU0oknlkXzEUtUu-243" value="Str" style="shape=partialRectangle;top=0;left=0;bottom=0;html=1;fillColor=none;align=left;verticalAlign=top;spacingLeft=4;spacingRight=4;whiteSpace=wrap;overflow=hidden;rotatable=0;points=[];portConstraint=eastwest;part=1;" connectable="0" vertex="1" parent="Vs4qHyU0oknlkXzEUtUu-242">
          <mxGeometry width="30" height="24" as="geometry" />
        </mxCell>
        <mxCell id="Vs4qHyU0oknlkXzEUtUu-244" value="&amp;nbsp;display info" style="shape=partialRectangle;top=0;left=0;right=0;bottom=0;html=1;align=left;verticalAlign=top;fillColor=none;spacingLeft=34;spacingRight=4;whiteSpace=wrap;overflow=hidden;rotatable=0;points=[[0,0.5],[1,0.5]];portConstraint=eastwest;dropTarget=0;" vertex="1" parent="Vs4qHyU0oknlkXzEUtUu-239">
          <mxGeometry y="76" width="160" height="26" as="geometry" />
        </mxCell>
        <mxCell id="Vs4qHyU0oknlkXzEUtUu-245" value="(V)" style="shape=partialRectangle;top=0;left=0;bottom=0;html=1;fillColor=none;align=left;verticalAlign=top;spacingLeft=4;spacingRight=4;whiteSpace=wrap;overflow=hidden;rotatable=0;points=[];portConstraint=eastwest;part=1;" connectable="0" vertex="1" parent="Vs4qHyU0oknlkXzEUtUu-244">
          <mxGeometry width="30" height="26" as="geometry" />
        </mxCell>
        <mxCell id="Vs4qHyU0oknlkXzEUtUu-246" value="" style="shape=partialRectangle;top=0;left=0;right=0;bottom=0;html=1;align=left;verticalAlign=top;fillColor=none;spacingLeft=34;spacingRight=4;whiteSpace=wrap;overflow=hidden;rotatable=0;points=[[0,0.5],[1,0.5]];portConstraint=eastwest;dropTarget=0;" vertex="1" parent="Vs4qHyU0oknlkXzEUtUu-239">
          <mxGeometry y="102" width="160" height="2" as="geometry" />
        </mxCell>
        <mxCell id="Vs4qHyU0oknlkXzEUtUu-247" value="" style="shape=partialRectangle;top=0;left=0;bottom=0;html=1;fillColor=none;align=left;verticalAlign=top;spacingLeft=4;spacingRight=4;whiteSpace=wrap;overflow=hidden;rotatable=0;points=[];portConstraint=eastwest;part=1;" connectable="0" vertex="1" parent="Vs4qHyU0oknlkXzEUtUu-246">
          <mxGeometry width="30" height="2" as="geometry" />
        </mxCell>
        <mxCell id="Vs4qHyU0oknlkXzEUtUu-248" value="" style="endArrow=none;html=1;rounded=0;exitX=-0.001;exitY=0.137;exitDx=0;exitDy=0;exitPerimeter=0;" edge="1" parent="Vs4qHyU0oknlkXzEUtUu-239" source="Vs4qHyU0oknlkXzEUtUu-244">
          <mxGeometry width="50" height="50" relative="1" as="geometry">
            <mxPoint x="10" y="78" as="sourcePoint" />
            <mxPoint x="160" y="80" as="targetPoint" />
          </mxGeometry>
        </mxCell>
        <mxCell id="Vs4qHyU0oknlkXzEUtUu-249" value="" style="endArrow=none;html=1;rounded=0;entryX=1.002;entryY=-0.031;entryDx=0;entryDy=0;entryPerimeter=0;" edge="1" parent="Vs4qHyU0oknlkXzEUtUu-239" target="Vs4qHyU0oknlkXzEUtUu-242">
          <mxGeometry width="50" height="50" relative="1" as="geometry">
            <mxPoint y="51" as="sourcePoint" />
            <mxPoint x="480" y="190" as="targetPoint" />
          </mxGeometry>
        </mxCell>
        <mxCell id="Vs4qHyU0oknlkXzEUtUu-250" value="" style="shape=flexArrow;endArrow=classic;html=1;rounded=0;entryX=0;entryY=0.25;entryDx=0;entryDy=0;fillColor=#d5e8d4;strokeColor=#82b366;" edge="1" parent="1" target="Vs4qHyU0oknlkXzEUtUu-223">
          <mxGeometry width="50" height="50" relative="1" as="geometry">
            <mxPoint x="-2310" y="-467" as="sourcePoint" />
            <mxPoint x="-1940" y="-300" as="targetPoint" />
            <Array as="points" />
          </mxGeometry>
        </mxCell>
        <mxCell id="Vs4qHyU0oknlkXzEUtUu-251" value="" style="shape=flexArrow;endArrow=classic;html=1;rounded=0;exitX=1;exitY=0.25;exitDx=0;exitDy=0;entryX=-0.006;entryY=0.156;entryDx=0;entryDy=0;entryPerimeter=0;fillColor=#d5e8d4;strokeColor=#82b366;" edge="1" parent="1" source="Vs4qHyU0oknlkXzEUtUu-223" target="Vs4qHyU0oknlkXzEUtUu-226">
          <mxGeometry width="50" height="50" relative="1" as="geometry">
            <mxPoint x="-1990" y="-250" as="sourcePoint" />
            <mxPoint x="-1970" y="-474" as="targetPoint" />
            <Array as="points" />
          </mxGeometry>
        </mxCell>
        <mxCell id="Vs4qHyU0oknlkXzEUtUu-252" value="Drink item" style="swimlane;html=1;fontStyle=0;childLayout=stackLayout;horizontal=1;startSize=20;fillColor=#e0e0e0;horizontalStack=0;resizeParent=1;resizeLast=0;collapsible=1;marginBottom=0;swimlaneFillColor=#ffffff;align=center;rounded=0;shadow=0;comic=0;labelBackgroundColor=none;strokeWidth=1;fontFamily=Verdana;fontSize=14" vertex="1" parent="1">
          <mxGeometry x="-2470" y="-236" width="160" height="110" as="geometry" />
        </mxCell>
        <mxCell id="Vs4qHyU0oknlkXzEUtUu-253" value="name" style="shape=partialRectangle;top=0;left=0;right=0;bottom=1;html=1;align=left;verticalAlign=middle;fillColor=none;spacingLeft=60;spacingRight=4;whiteSpace=wrap;overflow=hidden;rotatable=0;points=[[0,0.5],[1,0.5]];portConstraint=eastwest;dropTarget=0;fontStyle=5;" vertex="1" parent="Vs4qHyU0oknlkXzEUtUu-252">
          <mxGeometry y="20" width="160" height="30" as="geometry" />
        </mxCell>
        <mxCell id="Vs4qHyU0oknlkXzEUtUu-254" value="Str" style="shape=partialRectangle;fontStyle=1;top=0;left=0;bottom=0;html=1;fillColor=none;align=left;verticalAlign=middle;spacingLeft=4;spacingRight=4;whiteSpace=wrap;overflow=hidden;rotatable=0;points=[];portConstraint=eastwest;part=1;" connectable="0" vertex="1" parent="Vs4qHyU0oknlkXzEUtUu-253">
          <mxGeometry width="56" height="30" as="geometry" />
        </mxCell>
        <mxCell id="Vs4qHyU0oknlkXzEUtUu-255" value="price" style="shape=partialRectangle;top=0;left=0;right=0;bottom=1;html=1;align=left;verticalAlign=middle;fillColor=none;spacingLeft=60;spacingRight=4;whiteSpace=wrap;overflow=hidden;rotatable=0;points=[[0,0.5],[1,0.5]];portConstraint=eastwest;dropTarget=0;fontStyle=5;" vertex="1" parent="Vs4qHyU0oknlkXzEUtUu-252">
          <mxGeometry y="50" width="160" height="30" as="geometry" />
        </mxCell>
        <mxCell id="Vs4qHyU0oknlkXzEUtUu-256" value="double" style="shape=partialRectangle;fontStyle=1;top=0;left=0;bottom=0;html=1;fillColor=none;align=left;verticalAlign=middle;spacingLeft=4;spacingRight=4;whiteSpace=wrap;overflow=hidden;rotatable=0;points=[];portConstraint=eastwest;part=1;" connectable="0" vertex="1" parent="Vs4qHyU0oknlkXzEUtUu-255">
          <mxGeometry width="56" height="30" as="geometry" />
        </mxCell>
        <mxCell id="Vs4qHyU0oknlkXzEUtUu-257" value="count" style="shape=partialRectangle;top=0;left=0;right=0;bottom=1;html=1;align=left;verticalAlign=middle;fillColor=none;spacingLeft=60;spacingRight=4;whiteSpace=wrap;overflow=hidden;rotatable=0;points=[[0,0.5],[1,0.5]];portConstraint=eastwest;dropTarget=0;fontStyle=5;" vertex="1" parent="Vs4qHyU0oknlkXzEUtUu-252">
          <mxGeometry y="80" width="160" height="30" as="geometry" />
        </mxCell>
        <mxCell id="Vs4qHyU0oknlkXzEUtUu-258" value="int" style="shape=partialRectangle;fontStyle=1;top=0;left=0;bottom=0;html=1;fillColor=none;align=left;verticalAlign=middle;spacingLeft=4;spacingRight=4;whiteSpace=wrap;overflow=hidden;rotatable=0;points=[];portConstraint=eastwest;part=1;" connectable="0" vertex="1" parent="Vs4qHyU0oknlkXzEUtUu-257">
          <mxGeometry width="56" height="30" as="geometry" />
        </mxCell>
        <mxCell id="Vs4qHyU0oknlkXzEUtUu-259" value="Food item" style="swimlane;html=1;fontStyle=0;childLayout=stackLayout;horizontal=1;startSize=20;fillColor=#e0e0e0;horizontalStack=0;resizeParent=1;resizeLast=0;collapsible=1;marginBottom=0;swimlaneFillColor=#ffffff;align=center;rounded=0;shadow=0;comic=0;labelBackgroundColor=none;strokeWidth=1;fontFamily=Verdana;fontSize=14" vertex="1" parent="1">
          <mxGeometry x="-2220" y="-238" width="160" height="110" as="geometry" />
        </mxCell>
        <mxCell id="Vs4qHyU0oknlkXzEUtUu-260" value="name" style="shape=partialRectangle;top=0;left=0;right=0;bottom=1;html=1;align=left;verticalAlign=middle;fillColor=none;spacingLeft=60;spacingRight=4;whiteSpace=wrap;overflow=hidden;rotatable=0;points=[[0,0.5],[1,0.5]];portConstraint=eastwest;dropTarget=0;fontStyle=5;" vertex="1" parent="Vs4qHyU0oknlkXzEUtUu-259">
          <mxGeometry y="20" width="160" height="30" as="geometry" />
        </mxCell>
        <mxCell id="Vs4qHyU0oknlkXzEUtUu-261" value="Str" style="shape=partialRectangle;fontStyle=1;top=0;left=0;bottom=0;html=1;fillColor=none;align=left;verticalAlign=middle;spacingLeft=4;spacingRight=4;whiteSpace=wrap;overflow=hidden;rotatable=0;points=[];portConstraint=eastwest;part=1;" connectable="0" vertex="1" parent="Vs4qHyU0oknlkXzEUtUu-260">
          <mxGeometry width="56" height="30" as="geometry" />
        </mxCell>
        <mxCell id="Vs4qHyU0oknlkXzEUtUu-262" value="price" style="shape=partialRectangle;top=0;left=0;right=0;bottom=1;html=1;align=left;verticalAlign=middle;fillColor=none;spacingLeft=60;spacingRight=4;whiteSpace=wrap;overflow=hidden;rotatable=0;points=[[0,0.5],[1,0.5]];portConstraint=eastwest;dropTarget=0;fontStyle=5;" vertex="1" parent="Vs4qHyU0oknlkXzEUtUu-259">
          <mxGeometry y="50" width="160" height="30" as="geometry" />
        </mxCell>
        <mxCell id="Vs4qHyU0oknlkXzEUtUu-263" value="double" style="shape=partialRectangle;fontStyle=1;top=0;left=0;bottom=0;html=1;fillColor=none;align=left;verticalAlign=middle;spacingLeft=4;spacingRight=4;whiteSpace=wrap;overflow=hidden;rotatable=0;points=[];portConstraint=eastwest;part=1;" connectable="0" vertex="1" parent="Vs4qHyU0oknlkXzEUtUu-262">
          <mxGeometry width="56" height="30" as="geometry" />
        </mxCell>
        <mxCell id="Vs4qHyU0oknlkXzEUtUu-264" value="count" style="shape=partialRectangle;top=0;left=0;right=0;bottom=1;html=1;align=left;verticalAlign=middle;fillColor=none;spacingLeft=60;spacingRight=4;whiteSpace=wrap;overflow=hidden;rotatable=0;points=[[0,0.5],[1,0.5]];portConstraint=eastwest;dropTarget=0;fontStyle=5;" vertex="1" parent="Vs4qHyU0oknlkXzEUtUu-259">
          <mxGeometry y="80" width="160" height="30" as="geometry" />
        </mxCell>
        <mxCell id="Vs4qHyU0oknlkXzEUtUu-265" value="int" style="shape=partialRectangle;fontStyle=1;top=0;left=0;bottom=0;html=1;fillColor=none;align=left;verticalAlign=middle;spacingLeft=4;spacingRight=4;whiteSpace=wrap;overflow=hidden;rotatable=0;points=[];portConstraint=eastwest;part=1;" connectable="0" vertex="1" parent="Vs4qHyU0oknlkXzEUtUu-264">
          <mxGeometry width="56" height="30" as="geometry" />
        </mxCell>
        <mxCell id="Vs4qHyU0oknlkXzEUtUu-266" value="" style="shape=flexArrow;endArrow=classic;startArrow=classic;html=1;rounded=0;exitX=-0.006;exitY=0.242;exitDx=0;exitDy=0;exitPerimeter=0;fillColor=#d5e8d4;strokeColor=#82b366;" edge="1" parent="1" source="Vs4qHyU0oknlkXzEUtUu-262">
          <mxGeometry width="100" height="100" relative="1" as="geometry">
            <mxPoint x="-2390" y="-100" as="sourcePoint" />
            <mxPoint x="-2310" y="-180" as="targetPoint" />
          </mxGeometry>
        </mxCell>
        <mxCell id="Vs4qHyU0oknlkXzEUtUu-267" value="Ingrediants" style="swimlane;html=1;fontStyle=0;childLayout=stackLayout;horizontal=1;startSize=26;fillColor=#e0e0e0;horizontalStack=0;resizeParent=1;resizeLast=0;collapsible=1;marginBottom=0;swimlaneFillColor=#ffffff;align=center;rounded=0;shadow=0;comic=0;labelBackgroundColor=none;strokeWidth=1;fontFamily=Verdana;fontSize=14" vertex="1" parent="1">
          <mxGeometry x="-1970" y="-240" width="160" height="114" as="geometry" />
        </mxCell>
        <mxCell id="Vs4qHyU0oknlkXzEUtUu-268" value="&lt;span style=&quot;font-weight: normal;&quot;&gt;&lt;span style=&quot;white-space: pre;&quot;&gt;&#x9;&lt;/span&gt;name&lt;/span&gt;" style="shape=partialRectangle;top=0;left=0;right=0;bottom=1;html=1;align=left;verticalAlign=middle;fillColor=none;spacingLeft=34;spacingRight=4;whiteSpace=wrap;overflow=hidden;rotatable=0;points=[[0,0.5],[1,0.5]];portConstraint=eastwest;dropTarget=0;fontStyle=5;" vertex="1" parent="Vs4qHyU0oknlkXzEUtUu-267">
          <mxGeometry y="26" width="160" height="44" as="geometry" />
        </mxCell>
        <mxCell id="Vs4qHyU0oknlkXzEUtUu-269" value="Str" style="shape=partialRectangle;top=0;left=0;bottom=0;html=1;fillColor=none;align=left;verticalAlign=middle;spacingLeft=4;spacingRight=4;whiteSpace=wrap;overflow=hidden;rotatable=0;points=[];portConstraint=eastwest;part=1;" connectable="0" vertex="1" parent="Vs4qHyU0oknlkXzEUtUu-268">
          <mxGeometry width="40" height="44" as="geometry" />
        </mxCell>
        <mxCell id="Vs4qHyU0oknlkXzEUtUu-270" value="&lt;span style=&quot;font-weight: normal;&quot;&gt;&lt;span style=&quot;white-space: pre;&quot;&gt;&#x9;&lt;/span&gt;quantity&lt;/span&gt;" style="shape=partialRectangle;top=0;left=0;right=0;bottom=1;html=1;align=left;verticalAlign=middle;fillColor=none;spacingLeft=34;spacingRight=4;whiteSpace=wrap;overflow=hidden;rotatable=0;points=[[0,0.5],[1,0.5]];portConstraint=eastwest;dropTarget=0;fontStyle=5;" vertex="1" parent="Vs4qHyU0oknlkXzEUtUu-267">
          <mxGeometry y="70" width="160" height="44" as="geometry" />
        </mxCell>
        <mxCell id="Vs4qHyU0oknlkXzEUtUu-271" value="int" style="shape=partialRectangle;top=0;left=0;bottom=0;html=1;fillColor=none;align=left;verticalAlign=middle;spacingLeft=4;spacingRight=4;whiteSpace=wrap;overflow=hidden;rotatable=0;points=[];portConstraint=eastwest;part=1;" connectable="0" vertex="1" parent="Vs4qHyU0oknlkXzEUtUu-270">
          <mxGeometry width="40" height="44" as="geometry" />
        </mxCell>
        <mxCell id="Vs4qHyU0oknlkXzEUtUu-272" value="" style="endArrow=classic;html=1;rounded=0;exitX=0.009;exitY=0.112;exitDx=0;exitDy=0;exitPerimeter=0;entryX=1;entryY=0.5;entryDx=0;entryDy=0;" edge="1" parent="1" source="Vs4qHyU0oknlkXzEUtUu-267" target="Vs4qHyU0oknlkXzEUtUu-237">
          <mxGeometry width="50" height="50" relative="1" as="geometry">
            <mxPoint x="-2040" y="-240" as="sourcePoint" />
            <mxPoint x="-1990" y="-290" as="targetPoint" />
            <Array as="points">
              <mxPoint x="-2010" y="-227" />
              <mxPoint x="-2010" y="-308" />
            </Array>
          </mxGeometry>
        </mxCell>
        <mxCell id="Vs4qHyU0oknlkXzEUtUu-273" value="Doner type" style="swimlane;html=1;fontStyle=0;childLayout=stackLayout;horizontal=1;startSize=20;fillColor=#e0e0e0;horizontalStack=0;resizeParent=1;resizeLast=0;collapsible=1;marginBottom=0;swimlaneFillColor=#ffffff;align=center;rounded=0;shadow=0;comic=0;labelBackgroundColor=none;strokeWidth=1;fontFamily=Verdana;fontSize=14" vertex="1" parent="1">
          <mxGeometry x="-1750" y="-240" width="160" height="110" as="geometry" />
        </mxCell>
        <mxCell id="Vs4qHyU0oknlkXzEUtUu-274" value="name" style="shape=partialRectangle;top=0;left=0;right=0;bottom=1;html=1;align=left;verticalAlign=middle;fillColor=none;spacingLeft=60;spacingRight=4;whiteSpace=wrap;overflow=hidden;rotatable=0;points=[[0,0.5],[1,0.5]];portConstraint=eastwest;dropTarget=0;fontStyle=5;" vertex="1" parent="Vs4qHyU0oknlkXzEUtUu-273">
          <mxGeometry y="20" width="160" height="30" as="geometry" />
        </mxCell>
        <mxCell id="Vs4qHyU0oknlkXzEUtUu-275" value="Str" style="shape=partialRectangle;fontStyle=1;top=0;left=0;bottom=0;html=1;fillColor=none;align=left;verticalAlign=middle;spacingLeft=4;spacingRight=4;whiteSpace=wrap;overflow=hidden;rotatable=0;points=[];portConstraint=eastwest;part=1;" connectable="0" vertex="1" parent="Vs4qHyU0oknlkXzEUtUu-274">
          <mxGeometry width="56" height="30" as="geometry" />
        </mxCell>
        <mxCell id="Vs4qHyU0oknlkXzEUtUu-276" value="ingrediants" style="shape=partialRectangle;top=0;left=0;right=0;bottom=1;html=1;align=left;verticalAlign=middle;fillColor=none;spacingLeft=60;spacingRight=4;whiteSpace=wrap;overflow=hidden;rotatable=0;points=[[0,0.5],[1,0.5]];portConstraint=eastwest;dropTarget=0;fontStyle=5;" vertex="1" parent="Vs4qHyU0oknlkXzEUtUu-273">
          <mxGeometry y="50" width="160" height="30" as="geometry" />
        </mxCell>
        <mxCell id="Vs4qHyU0oknlkXzEUtUu-277" value="List" style="shape=partialRectangle;fontStyle=1;top=0;left=0;bottom=0;html=1;fillColor=none;align=left;verticalAlign=middle;spacingLeft=4;spacingRight=4;whiteSpace=wrap;overflow=hidden;rotatable=0;points=[];portConstraint=eastwest;part=1;" connectable="0" vertex="1" parent="Vs4qHyU0oknlkXzEUtUu-276">
          <mxGeometry width="56" height="30" as="geometry" />
        </mxCell>
        <mxCell id="Vs4qHyU0oknlkXzEUtUu-278" value="add to doner" style="shape=partialRectangle;top=0;left=0;right=0;bottom=1;html=1;align=left;verticalAlign=middle;fillColor=none;spacingLeft=60;spacingRight=4;whiteSpace=wrap;overflow=hidden;rotatable=0;points=[[0,0.5],[1,0.5]];portConstraint=eastwest;dropTarget=0;fontStyle=5;" vertex="1" parent="Vs4qHyU0oknlkXzEUtUu-273">
          <mxGeometry y="80" width="160" height="30" as="geometry" />
        </mxCell>
        <mxCell id="Vs4qHyU0oknlkXzEUtUu-279" value="(v)" style="shape=partialRectangle;fontStyle=1;top=0;left=0;bottom=0;html=1;fillColor=none;align=left;verticalAlign=middle;spacingLeft=4;spacingRight=4;whiteSpace=wrap;overflow=hidden;rotatable=0;points=[];portConstraint=eastwest;part=1;" connectable="0" vertex="1" parent="Vs4qHyU0oknlkXzEUtUu-278">
          <mxGeometry width="56" height="30" as="geometry" />
        </mxCell>
        <mxCell id="Vs4qHyU0oknlkXzEUtUu-280" value="" style="endArrow=classic;html=1;rounded=0;entryX=0;entryY=0.5;entryDx=0;entryDy=0;exitX=0.994;exitY=0.11;exitDx=0;exitDy=0;exitPerimeter=0;" edge="1" parent="1" source="Vs4qHyU0oknlkXzEUtUu-267" target="Vs4qHyU0oknlkXzEUtUu-276">
          <mxGeometry width="50" height="50" relative="1" as="geometry">
            <mxPoint x="-1806" y="-304" as="sourcePoint" />
            <mxPoint x="-1980" y="-300" as="targetPoint" />
            <Array as="points">
              <mxPoint x="-1770" y="-227" />
              <mxPoint x="-1770" y="-175" />
            </Array>
          </mxGeometry>
        </mxCell>
        <mxCell id="Vs4qHyU0oknlkXzEUtUu-281" value="Order" style="swimlane;html=1;fontStyle=0;childLayout=stackLayout;horizontal=1;startSize=26;fillColor=#e0e0e0;horizontalStack=0;resizeParent=1;resizeLast=0;collapsible=1;marginBottom=0;swimlaneFillColor=#ffffff;align=center;rounded=0;shadow=0;comic=0;labelBackgroundColor=none;strokeWidth=1;fontFamily=Verdana;fontSize=14" vertex="1" parent="1">
          <mxGeometry x="-1750" y="-480" width="160" height="180" as="geometry" />
        </mxCell>
        <mxCell id="Vs4qHyU0oknlkXzEUtUu-282" value="Drink items" style="shape=partialRectangle;top=0;left=0;right=0;bottom=0;html=1;align=left;verticalAlign=top;fillColor=none;spacingLeft=34;spacingRight=4;whiteSpace=wrap;overflow=hidden;rotatable=0;points=[[0,0.5],[1,0.5]];portConstraint=eastwest;dropTarget=0;" vertex="1" parent="Vs4qHyU0oknlkXzEUtUu-281">
          <mxGeometry y="26" width="160" height="26" as="geometry" />
        </mxCell>
        <mxCell id="Vs4qHyU0oknlkXzEUtUu-283" value="List" style="shape=partialRectangle;top=0;left=0;bottom=0;html=1;fillColor=none;align=left;verticalAlign=top;spacingLeft=4;spacingRight=4;whiteSpace=wrap;overflow=hidden;rotatable=0;points=[];portConstraint=eastwest;part=1;" connectable="0" vertex="1" parent="Vs4qHyU0oknlkXzEUtUu-282">
          <mxGeometry width="30" height="26" as="geometry" />
        </mxCell>
        <mxCell id="Vs4qHyU0oknlkXzEUtUu-284" value="Food items" style="shape=partialRectangle;top=0;left=0;right=0;bottom=0;html=1;align=left;verticalAlign=top;fillColor=none;spacingLeft=34;spacingRight=4;whiteSpace=wrap;overflow=hidden;rotatable=0;points=[[0,0.5],[1,0.5]];portConstraint=eastwest;dropTarget=0;" vertex="1" parent="Vs4qHyU0oknlkXzEUtUu-281">
          <mxGeometry y="52" width="160" height="24" as="geometry" />
        </mxCell>
        <mxCell id="Vs4qHyU0oknlkXzEUtUu-285" value="List" style="shape=partialRectangle;top=0;left=0;bottom=0;html=1;fillColor=none;align=left;verticalAlign=top;spacingLeft=4;spacingRight=4;whiteSpace=wrap;overflow=hidden;rotatable=0;points=[];portConstraint=eastwest;part=1;" connectable="0" vertex="1" parent="Vs4qHyU0oknlkXzEUtUu-284">
          <mxGeometry width="30" height="24" as="geometry" />
        </mxCell>
        <mxCell id="Vs4qHyU0oknlkXzEUtUu-286" value="customer name" style="shape=partialRectangle;top=0;left=0;right=0;bottom=0;html=1;align=left;verticalAlign=top;fillColor=none;spacingLeft=34;spacingRight=4;whiteSpace=wrap;overflow=hidden;rotatable=0;points=[[0,0.5],[1,0.5]];portConstraint=eastwest;dropTarget=0;" vertex="1" parent="Vs4qHyU0oknlkXzEUtUu-281">
          <mxGeometry y="76" width="160" height="26" as="geometry" />
        </mxCell>
        <mxCell id="Vs4qHyU0oknlkXzEUtUu-287" value="Str" style="shape=partialRectangle;top=0;left=0;bottom=0;html=1;fillColor=none;align=left;verticalAlign=top;spacingLeft=4;spacingRight=4;whiteSpace=wrap;overflow=hidden;rotatable=0;points=[];portConstraint=eastwest;part=1;" connectable="0" vertex="1" parent="Vs4qHyU0oknlkXzEUtUu-286">
          <mxGeometry width="30" height="26" as="geometry" />
        </mxCell>
        <mxCell id="Vs4qHyU0oknlkXzEUtUu-288" value="" style="shape=partialRectangle;top=0;left=0;right=0;bottom=0;html=1;align=left;verticalAlign=top;fillColor=none;spacingLeft=34;spacingRight=4;whiteSpace=wrap;overflow=hidden;rotatable=0;points=[[0,0.5],[1,0.5]];portConstraint=eastwest;dropTarget=0;" vertex="1" parent="Vs4qHyU0oknlkXzEUtUu-281">
          <mxGeometry y="102" width="160" height="2" as="geometry" />
        </mxCell>
        <mxCell id="Vs4qHyU0oknlkXzEUtUu-289" value="" style="shape=partialRectangle;top=0;left=0;bottom=0;html=1;fillColor=none;align=left;verticalAlign=top;spacingLeft=4;spacingRight=4;whiteSpace=wrap;overflow=hidden;rotatable=0;points=[];portConstraint=eastwest;part=1;" connectable="0" vertex="1" parent="Vs4qHyU0oknlkXzEUtUu-288">
          <mxGeometry width="30" height="2" as="geometry" />
        </mxCell>
        <mxCell id="Vs4qHyU0oknlkXzEUtUu-290" value="" style="endArrow=none;html=1;rounded=0;exitX=-0.001;exitY=0.137;exitDx=0;exitDy=0;exitPerimeter=0;" edge="1" parent="Vs4qHyU0oknlkXzEUtUu-281" source="Vs4qHyU0oknlkXzEUtUu-286">
          <mxGeometry width="50" height="50" relative="1" as="geometry">
            <mxPoint x="10" y="78" as="sourcePoint" />
            <mxPoint x="160" y="80" as="targetPoint" />
          </mxGeometry>
        </mxCell>
        <mxCell id="Vs4qHyU0oknlkXzEUtUu-291" value="" style="endArrow=none;html=1;rounded=0;entryX=1.002;entryY=-0.031;entryDx=0;entryDy=0;entryPerimeter=0;" edge="1" parent="Vs4qHyU0oknlkXzEUtUu-281" target="Vs4qHyU0oknlkXzEUtUu-284">
          <mxGeometry width="50" height="50" relative="1" as="geometry">
            <mxPoint y="51" as="sourcePoint" />
            <mxPoint x="480" y="190" as="targetPoint" />
          </mxGeometry>
        </mxCell>
        <mxCell id="Vs4qHyU0oknlkXzEUtUu-292" value="price" style="shape=partialRectangle;top=0;left=0;right=0;bottom=0;html=1;align=left;verticalAlign=top;fillColor=none;spacingLeft=34;spacingRight=4;whiteSpace=wrap;overflow=hidden;rotatable=0;points=[[0,0.5],[1,0.5]];portConstraint=eastwest;dropTarget=0;" vertex="1" parent="Vs4qHyU0oknlkXzEUtUu-281">
          <mxGeometry y="104" width="160" height="26" as="geometry" />
        </mxCell>
        <mxCell id="Vs4qHyU0oknlkXzEUtUu-293" value="dou" style="shape=partialRectangle;top=0;left=0;bottom=0;html=1;fillColor=none;align=left;verticalAlign=top;spacingLeft=4;spacingRight=4;whiteSpace=wrap;overflow=hidden;rotatable=0;points=[];portConstraint=eastwest;part=1;" connectable="0" vertex="1" parent="Vs4qHyU0oknlkXzEUtUu-292">
          <mxGeometry width="30" height="26" as="geometry" />
        </mxCell>
        <mxCell id="Vs4qHyU0oknlkXzEUtUu-294" value="" style="endArrow=none;html=1;rounded=0;entryX=1.009;entryY=0.183;entryDx=0;entryDy=0;entryPerimeter=0;" edge="1" parent="Vs4qHyU0oknlkXzEUtUu-281" target="Vs4qHyU0oknlkXzEUtUu-292">
          <mxGeometry width="50" height="50" relative="1" as="geometry">
            <mxPoint y="109" as="sourcePoint" />
            <mxPoint x="170" y="90" as="targetPoint" />
          </mxGeometry>
        </mxCell>
        <mxCell id="Vs4qHyU0oknlkXzEUtUu-295" value="Chef" style="shape=partialRectangle;top=0;left=0;right=0;bottom=0;html=1;align=left;verticalAlign=top;fillColor=none;spacingLeft=34;spacingRight=4;whiteSpace=wrap;overflow=hidden;rotatable=0;points=[[0,0.5],[1,0.5]];portConstraint=eastwest;dropTarget=0;" vertex="1" parent="1">
          <mxGeometry x="-1750" y="-350" width="160" height="30" as="geometry" />
        </mxCell>
        <mxCell id="Vs4qHyU0oknlkXzEUtUu-296" value="(c)" style="shape=partialRectangle;top=0;left=0;bottom=0;html=1;fillColor=none;align=left;verticalAlign=top;spacingLeft=4;spacingRight=4;whiteSpace=wrap;overflow=hidden;rotatable=0;points=[];portConstraint=eastwest;part=1;" connectable="0" vertex="1" parent="Vs4qHyU0oknlkXzEUtUu-295">
          <mxGeometry width="30" height="29.999999999999996" as="geometry" />
        </mxCell>
        <mxCell id="Vs4qHyU0oknlkXzEUtUu-297" value="" style="endArrow=none;html=1;rounded=0;exitX=0.002;exitY=0.125;exitDx=0;exitDy=0;exitPerimeter=0;entryX=1.017;entryY=1.145;entryDx=0;entryDy=0;entryPerimeter=0;" edge="1" parent="1" source="Vs4qHyU0oknlkXzEUtUu-295" target="Vs4qHyU0oknlkXzEUtUu-292">
          <mxGeometry width="50" height="50" relative="1" as="geometry">
            <mxPoint x="-1730" y="-380" as="sourcePoint" />
            <mxPoint x="-1570" y="-380" as="targetPoint" />
          </mxGeometry>
        </mxCell>
        <mxCell id="Vs4qHyU0oknlkXzEUtUu-298" value="" style="endArrow=classic;html=1;rounded=0;exitX=1;exitY=0;exitDx=0;exitDy=0;entryX=0;entryY=0.5;entryDx=0;entryDy=0;" edge="1" parent="1" source="Vs4qHyU0oknlkXzEUtUu-226" target="Vs4qHyU0oknlkXzEUtUu-295">
          <mxGeometry width="50" height="50" relative="1" as="geometry">
            <mxPoint x="-1990" y="-260" as="sourcePoint" />
            <mxPoint x="-1940" y="-310" as="targetPoint" />
            <Array as="points">
              <mxPoint x="-1780" y="-480" />
              <mxPoint x="-1780" y="-335" />
            </Array>
          </mxGeometry>
        </mxCell>
        <mxCell id="Vs4qHyU0oknlkXzEUtUu-299" value="" style="endArrow=classic;html=1;rounded=0;exitX=0.541;exitY=1.042;exitDx=0;exitDy=0;exitPerimeter=0;entryX=1;entryY=0.5;entryDx=0;entryDy=0;" edge="1" parent="1" source="Vs4qHyU0oknlkXzEUtUu-257" target="Vs4qHyU0oknlkXzEUtUu-282">
          <mxGeometry width="50" height="50" relative="1" as="geometry">
            <mxPoint x="-1990" y="-260" as="sourcePoint" />
            <mxPoint x="-1940" y="-310" as="targetPoint" />
            <Array as="points">
              <mxPoint x="-2383" y="-80" />
              <mxPoint x="-1870" y="-80" />
              <mxPoint x="-1550" y="-80" />
              <mxPoint x="-1550" y="-441" />
            </Array>
          </mxGeometry>
        </mxCell>
        <mxCell id="Vs4qHyU0oknlkXzEUtUu-300" value="" style="endArrow=classic;html=1;rounded=0;exitX=0.5;exitY=0;exitDx=0;exitDy=0;" edge="1" parent="1" source="Vs4qHyU0oknlkXzEUtUu-321">
          <mxGeometry width="50" height="50" relative="1" as="geometry">
            <mxPoint x="-2020" y="-260" as="sourcePoint" />
            <mxPoint x="-1670" y="-320" as="targetPoint" />
          </mxGeometry>
        </mxCell>
        <mxCell id="Vs4qHyU0oknlkXzEUtUu-301" value="" style="endArrow=classic;html=1;rounded=0;entryX=0;entryY=0.5;entryDx=0;entryDy=0;exitX=0.999;exitY=0.103;exitDx=0;exitDy=0;exitPerimeter=0;" edge="1" parent="1" target="Vs4qHyU0oknlkXzEUtUu-227" source="Vs4qHyU0oknlkXzEUtUu-234">
          <mxGeometry width="50" height="50" relative="1" as="geometry">
            <mxPoint x="-2060" y="-350" as="sourcePoint" />
            <mxPoint x="-1990" y="-320" as="targetPoint" />
            <Array as="points">
              <mxPoint x="-2010" y="-388" />
              <mxPoint x="-2010" y="-440" />
            </Array>
          </mxGeometry>
        </mxCell>
        <mxCell id="Vs4qHyU0oknlkXzEUtUu-302" value="Doner Menu" style="swimlane;html=1;fontStyle=0;childLayout=stackLayout;horizontal=1;startSize=26;fillColor=#e0e0e0;horizontalStack=0;resizeParent=1;resizeLast=0;collapsible=1;marginBottom=0;swimlaneFillColor=#ffffff;align=center;rounded=0;shadow=0;comic=0;labelBackgroundColor=none;strokeWidth=1;fontFamily=Verdana;fontSize=14;swimlaneLine=1;" vertex="1" parent="1">
          <mxGeometry x="-1970" y="-376" width="160" height="54" as="geometry" />
        </mxCell>
        <mxCell id="Vs4qHyU0oknlkXzEUtUu-303" value="Doner Types" style="shape=partialRectangle;top=0;left=0;right=0;bottom=0;html=1;align=left;verticalAlign=top;fillColor=none;spacingLeft=34;spacingRight=4;whiteSpace=wrap;overflow=hidden;rotatable=0;points=[[0,0.5],[1,0.5]];portConstraint=eastwest;dropTarget=0;" vertex="1" parent="Vs4qHyU0oknlkXzEUtUu-302">
          <mxGeometry y="26" width="160" height="26" as="geometry" />
        </mxCell>
        <mxCell id="Vs4qHyU0oknlkXzEUtUu-304" value="List" style="shape=partialRectangle;top=0;left=0;bottom=0;html=1;fillColor=none;align=left;verticalAlign=top;spacingLeft=4;spacingRight=4;whiteSpace=wrap;overflow=hidden;rotatable=0;points=[];portConstraint=eastwest;part=1;" connectable="0" vertex="1" parent="Vs4qHyU0oknlkXzEUtUu-303">
          <mxGeometry width="30" height="26" as="geometry" />
        </mxCell>
        <mxCell id="Vs4qHyU0oknlkXzEUtUu-305" value="" style="shape=partialRectangle;top=0;left=0;right=0;bottom=0;html=1;align=left;verticalAlign=top;fillColor=none;spacingLeft=34;spacingRight=4;whiteSpace=wrap;overflow=hidden;rotatable=0;points=[[0,0.5],[1,0.5]];portConstraint=eastwest;dropTarget=0;" vertex="1" parent="Vs4qHyU0oknlkXzEUtUu-302">
          <mxGeometry y="52" width="160" height="2" as="geometry" />
        </mxCell>
        <mxCell id="Vs4qHyU0oknlkXzEUtUu-306" value="" style="shape=partialRectangle;top=0;left=0;bottom=0;html=1;fillColor=none;align=left;verticalAlign=top;spacingLeft=4;spacingRight=4;whiteSpace=wrap;overflow=hidden;rotatable=0;points=[];portConstraint=eastwest;part=1;" connectable="0" vertex="1" parent="Vs4qHyU0oknlkXzEUtUu-305">
          <mxGeometry width="30" height="2" as="geometry" />
        </mxCell>
        <mxCell id="Vs4qHyU0oknlkXzEUtUu-307" value="" style="endArrow=none;html=1;rounded=0;entryX=1.009;entryY=-0.125;entryDx=0;entryDy=0;entryPerimeter=0;" edge="1" parent="1">
          <mxGeometry width="50" height="50" relative="1" as="geometry">
            <mxPoint x="-1971.44" y="-320.75" as="sourcePoint" />
            <mxPoint x="-1810" y="-322" as="targetPoint" />
          </mxGeometry>
        </mxCell>
        <mxCell id="Vs4qHyU0oknlkXzEUtUu-309" value="" style="endArrow=classic;html=1;rounded=0;exitX=0.127;exitY=-0.023;exitDx=0;exitDy=0;exitPerimeter=0;" edge="1" parent="1" source="Vs4qHyU0oknlkXzEUtUu-273">
          <mxGeometry width="50" height="50" relative="1" as="geometry">
            <mxPoint x="-2040" y="-270" as="sourcePoint" />
            <mxPoint x="-1900" y="-320" as="targetPoint" />
            <Array as="points">
              <mxPoint x="-1730" y="-280" />
              <mxPoint x="-1900" y="-280" />
            </Array>
          </mxGeometry>
        </mxCell>
        <mxCell id="Vs4qHyU0oknlkXzEUtUu-310" value="" style="shape=flexArrow;endArrow=classic;html=1;rounded=0;exitX=0.463;exitY=1.059;exitDx=0;exitDy=0;exitPerimeter=0;fillColor=#d5e8d4;strokeColor=#82b366;" edge="1" parent="1" source="Vs4qHyU0oknlkXzEUtUu-264">
          <mxGeometry width="50" height="50" relative="1" as="geometry">
            <mxPoint x="-2040" y="-270" as="sourcePoint" />
            <mxPoint x="-1670" y="-130" as="targetPoint" />
            <Array as="points">
              <mxPoint x="-2146" y="-100" />
              <mxPoint x="-1920" y="-100" />
              <mxPoint x="-1670" y="-100" />
            </Array>
          </mxGeometry>
        </mxCell>
        <mxCell id="Vs4qHyU0oknlkXzEUtUu-311" value="" style="shape=flexArrow;endArrow=classic;html=1;rounded=0;entryX=0.5;entryY=0;entryDx=0;entryDy=0;width=10;endSize=5.7;exitX=0.494;exitY=1.508;exitDx=0;exitDy=0;exitPerimeter=0;fillColor=#d5e8d4;strokeColor=#82b366;" edge="1" parent="1" source="Vs4qHyU0oknlkXzEUtUu-246" target="Vs4qHyU0oknlkXzEUtUu-312">
          <mxGeometry width="50" height="50" relative="1" as="geometry">
            <mxPoint x="-2390" y="-370" as="sourcePoint" />
            <mxPoint x="-2390" y="-330" as="targetPoint" />
          </mxGeometry>
        </mxCell>
        <mxCell id="Vs4qHyU0oknlkXzEUtUu-312" value="Customer" style="swimlane;html=1;fontStyle=0;childLayout=stackLayout;horizontal=1;startSize=26;fillColor=#e0e0e0;horizontalStack=0;resizeParent=1;resizeLast=0;collapsible=1;marginBottom=0;swimlaneFillColor=#ffffff;align=center;rounded=0;shadow=0;comic=0;labelBackgroundColor=none;strokeWidth=1;fontFamily=Verdana;fontSize=14" vertex="1" parent="1">
          <mxGeometry x="-2470" y="-340" width="160" height="78" as="geometry" />
        </mxCell>
        <mxCell id="Vs4qHyU0oknlkXzEUtUu-313" value="money" style="shape=partialRectangle;top=0;left=0;right=0;bottom=0;html=1;align=left;verticalAlign=top;fillColor=none;spacingLeft=60;spacingRight=4;whiteSpace=wrap;overflow=hidden;rotatable=0;points=[[0,0.5],[1,0.5]];portConstraint=eastwest;dropTarget=0;" vertex="1" parent="Vs4qHyU0oknlkXzEUtUu-312">
          <mxGeometry y="26" width="160" height="26" as="geometry" />
        </mxCell>
        <mxCell id="Vs4qHyU0oknlkXzEUtUu-314" value="double" style="shape=partialRectangle;top=0;left=0;bottom=0;html=1;fillColor=none;align=left;verticalAlign=top;spacingLeft=4;spacingRight=4;whiteSpace=wrap;overflow=hidden;rotatable=0;points=[];portConstraint=eastwest;part=1;" connectable="0" vertex="1" parent="Vs4qHyU0oknlkXzEUtUu-313">
          <mxGeometry width="56" height="26" as="geometry" />
        </mxCell>
        <mxCell id="Vs4qHyU0oknlkXzEUtUu-315" value="payment type" style="shape=partialRectangle;top=0;left=0;right=0;bottom=0;html=1;align=left;verticalAlign=top;fillColor=none;spacingLeft=60;spacingRight=4;whiteSpace=wrap;overflow=hidden;rotatable=0;points=[[0,0.5],[1,0.5]];portConstraint=eastwest;dropTarget=0;" vertex="1" parent="Vs4qHyU0oknlkXzEUtUu-312">
          <mxGeometry y="52" width="160" height="26" as="geometry" />
        </mxCell>
        <mxCell id="Vs4qHyU0oknlkXzEUtUu-316" value="int" style="shape=partialRectangle;top=0;left=0;bottom=0;html=1;fillColor=none;align=left;verticalAlign=top;spacingLeft=4;spacingRight=4;whiteSpace=wrap;overflow=hidden;rotatable=0;points=[];portConstraint=eastwest;part=1;" connectable="0" vertex="1" parent="Vs4qHyU0oknlkXzEUtUu-315">
          <mxGeometry width="56" height="26" as="geometry" />
        </mxCell>
        <mxCell id="Vs4qHyU0oknlkXzEUtUu-317" value="" style="endArrow=none;html=1;rounded=0;exitX=-0.006;exitY=1.039;exitDx=0;exitDy=0;exitPerimeter=0;" edge="1" parent="Vs4qHyU0oknlkXzEUtUu-312" source="Vs4qHyU0oknlkXzEUtUu-313">
          <mxGeometry width="50" height="50" relative="1" as="geometry">
            <mxPoint x="4" y="53" as="sourcePoint" />
            <mxPoint x="160" y="53" as="targetPoint" />
          </mxGeometry>
        </mxCell>
        <mxCell id="Vs4qHyU0oknlkXzEUtUu-318" value="" style="endArrow=classic;html=1;rounded=0;fillColor=#dae8fc;strokeColor=#6c8ebf;" edge="1" parent="1">
          <mxGeometry width="50" height="50" relative="1" as="geometry">
            <mxPoint x="-2310" y="-327" as="sourcePoint" />
            <mxPoint x="-1590" y="-390" as="targetPoint" />
            <Array as="points">
              <mxPoint x="-2270" y="-327" />
              <mxPoint x="-2270" y="-260" />
              <mxPoint x="-1960" y="-260" />
              <mxPoint x="-1580" y="-260" />
              <mxPoint x="-1580" y="-390" />
            </Array>
          </mxGeometry>
        </mxCell>
        <mxCell id="Vs4qHyU0oknlkXzEUtUu-319" value="" style="endArrow=classic;html=1;rounded=0;entryX=1;entryY=0.5;entryDx=0;entryDy=0;exitX=0.236;exitY=1.017;exitDx=0;exitDy=0;exitPerimeter=0;fillColor=#ffe6cc;strokeColor=#d79b00;" edge="1" parent="1" source="Vs4qHyU0oknlkXzEUtUu-264" target="Vs4qHyU0oknlkXzEUtUu-284">
          <mxGeometry width="50" height="50" relative="1" as="geometry">
            <mxPoint x="-2190" y="-90" as="sourcePoint" />
            <mxPoint x="-2010" y="-330" as="targetPoint" />
            <Array as="points">
              <mxPoint x="-2182" y="-90" />
              <mxPoint x="-1920" y="-90" />
              <mxPoint x="-1570" y="-90" />
              <mxPoint x="-1570" y="-416" />
            </Array>
          </mxGeometry>
        </mxCell>
        <mxCell id="Vs4qHyU0oknlkXzEUtUu-320" value="" style="endArrow=classic;html=1;rounded=0;exitX=0.5;exitY=0;exitDx=0;exitDy=0;" edge="1" parent="1" source="Vs4qHyU0oknlkXzEUtUu-273" target="Vs4qHyU0oknlkXzEUtUu-321">
          <mxGeometry width="50" height="50" relative="1" as="geometry">
            <mxPoint x="-1670" y="-240" as="sourcePoint" />
            <mxPoint x="-1670" y="-290" as="targetPoint" />
          </mxGeometry>
        </mxCell>
        <mxCell id="Vs4qHyU0oknlkXzEUtUu-321" value="Doners" style="shape=partialRectangle;top=0;left=0;right=0;bottom=0;html=1;align=left;verticalAlign=top;fillColor=none;spacingLeft=34;spacingRight=4;whiteSpace=wrap;overflow=hidden;rotatable=0;points=[[0,0.5],[1,0.5]];portConstraint=eastwest;dropTarget=0;" vertex="1" parent="1">
          <mxGeometry x="-1750" y="-320" width="160" height="20" as="geometry" />
        </mxCell>
        <mxCell id="Vs4qHyU0oknlkXzEUtUu-322" value="List" style="shape=partialRectangle;top=0;left=0;bottom=0;html=1;fillColor=none;align=left;verticalAlign=top;spacingLeft=4;spacingRight=4;whiteSpace=wrap;overflow=hidden;rotatable=0;points=[];portConstraint=eastwest;part=1;" connectable="0" vertex="1" parent="Vs4qHyU0oknlkXzEUtUu-321">
          <mxGeometry width="30" height="20" as="geometry" />
        </mxCell>
        <mxCell id="Vs4qHyU0oknlkXzEUtUu-323" value="" style="endArrow=none;html=1;rounded=0;entryX=1.009;entryY=0.959;entryDx=0;entryDy=0;entryPerimeter=0;exitX=-0.006;exitY=-0.062;exitDx=0;exitDy=0;exitPerimeter=0;" edge="1" parent="1" source="Vs4qHyU0oknlkXzEUtUu-321" target="Vs4qHyU0oknlkXzEUtUu-295">
          <mxGeometry width="50" height="50" relative="1" as="geometry">
            <mxPoint x="-2060" y="-280" as="sourcePoint" />
            <mxPoint x="-2010" y="-330" as="targetPoint" />
          </mxGeometry>
        </mxCell>
        <mxCell id="FWmRTyvv1EJujDL_1tQC-2" value="" style="endArrow=classic;startArrow=classic;html=1;rounded=0;entryX=0;entryY=0.5;entryDx=0;entryDy=0;exitX=1;exitY=0.25;exitDx=0;exitDy=0;" edge="1" parent="1" source="Vs4qHyU0oknlkXzEUtUu-302" target="Vs4qHyU0oknlkXzEUtUu-321">
          <mxGeometry width="50" height="50" relative="1" as="geometry">
            <mxPoint x="-2040" y="-240" as="sourcePoint" />
            <mxPoint x="-1990" y="-290" as="targetPoint" />
            <Array as="points">
              <mxPoint x="-1790" y="-362" />
              <mxPoint x="-1790" y="-310" />
            </Array>
          </mxGeometry>
        </mxCell>
      </root>
    </mxGraphModel>
  </diagram>
</mxfile>
